HIERARCHY
ROOT hip
{
	OFFSET 0.000000 0.000000 0.000000 
	CHANNELS 6 Xposition Yposition Zposition Zrotation Xrotation Yrotation
	JOINT abdomen
	{
		OFFSET 0.000000 3.402643 0.000000 
		CHANNELS 3 Zrotation Xrotation Yrotation
		JOINT chest
		{
			OFFSET 0.000000 8.438565 -0.680529 
			CHANNELS 3 Zrotation Xrotation Yrotation
			JOINT neck
			{
				OFFSET 0.000000 10.207942 -0.272212 
				CHANNELS 3 Zrotation Xrotation Yrotation
				JOINT head
				{
					OFFSET 0.000000 3.130431 0.000000 
					CHANNELS 3 Zrotation Xrotation Yrotation
					End Site
					{
						OFFSET 0.000000 3.130435 0.000000 
					}
				}
			}
			JOINT lCollar
			{
				OFFSET 3.470700 6.669187 -0.816635 
				CHANNELS 3 Zrotation Xrotation Yrotation
				JOINT lShldr
				{
					OFFSET 3.198488 0.000000 0.000000 
					CHANNELS 3 Zrotation Xrotation Yrotation
					JOINT lForeArm
					{
						OFFSET 10.139888 0.000000 0.000000 
						CHANNELS 3 Zrotation Xrotation Yrotation
						JOINT lHand
						{
							OFFSET 8.370511 0.000000 0.000000 
							CHANNELS 3 Zrotation Xrotation Yrotation
							End Site
							{
								OFFSET 4.083176 0.000000 0.000000 
							}
						}
					}
				}
			}
			JOINT rCollar
			{
				OFFSET -3.470700 6.669187 -0.816635 
				CHANNELS 3 Zrotation Xrotation Yrotation
				JOINT rShldr
				{
					OFFSET -3.198488 0.000000 0.000000 
					CHANNELS 3 Zrotation Xrotation Yrotation
					JOINT rForeArm
					{
						OFFSET -10.139888 0.000000 0.000000 
						CHANNELS 3 Zrotation Xrotation Yrotation
						JOINT rHand
						{
							OFFSET -8.370511 0.000000 0.000000 
							CHANNELS 3 Zrotation Xrotation Yrotation
							End Site
							{
								OFFSET -4.083176 0.000000 0.000000 
							}
						}
					}
				}
			}
		}
	}
	JOINT lThigh
	{
		OFFSET 5.308129 -1.633274 1.361059 
		CHANNELS 3 Zrotation Xrotation Yrotation
		JOINT lShin
		{
			OFFSET -2.041588 -20.007561 0.000000 
			CHANNELS 3 Zrotation Xrotation Yrotation
			JOINT lFoot
			{
				OFFSET 0.000000 -19.190928 -1.224953 
				CHANNELS 3 Zrotation Xrotation Yrotation
				End Site
				{
					OFFSET 0.000000 -2.449906 4.627600 
				}
			}
		}
	}
	JOINT rThigh
	{
		OFFSET -5.308129 -1.633274 1.361059 
		CHANNELS 3 Zrotation Xrotation Yrotation
		JOINT rShin
		{
			OFFSET 2.041588 -20.007561 0.000000 
			CHANNELS 3 Zrotation Xrotation Yrotation
			JOINT rFoot
			{
				OFFSET 0.000000 -19.190928 -1.224953 
				CHANNELS 3 Zrotation Xrotation Yrotation
				End Site
				{
					OFFSET 0.000000 -2.449906 4.627600 
				}
			}
		}
	}
}
MOTION
Frames: 16
Frame Time: 0.033333
1.218183 45.810787 -1.130494 -0.000000 -0.000010 -0.000000 6.181210 12.031320 -1.293254 3.018042 1.004465 -0.052956 6.429968 18.844273 -2.084704 4.997954 -31.972193 2.748950 -12.909801 -0.520208 1.970376 -64.787117 6.848682 -52.631714 -84.045181 22.200445 -21.807182 2.306720 -46.952583 -4.947699 7.863406 -0.357521 -2.021812 82.299377 2.456739 72.174774 -24.205719 19.733580 149.972198 -73.268929 -2.816880 1.182622 1.450057 -19.540743 1.740607 -4.190170 35.510582 -0.629683 2.023133 -16.413475 1.143417 -7.234972 -19.808498 -2.052243 3.284328 36.008541 0.279506 2.423779 -16.730923 -1.052097 
1.222218 45.814606 -1.129746 -0.000000 -0.000010 -0.000000 6.222950 12.108104 -1.309200 3.037576 1.004448 -0.053299 5.665459 18.830135 -1.833048 5.114576 -31.996796 2.891039 -13.095246 -0.526582 1.968902 -64.804550 6.826442 -52.727776 -84.037468 22.110567 -21.855461 2.273416 -46.967613 -4.943866 8.029270 -0.364742 -2.020998 82.132622 2.454415 72.213913 -24.205719 19.733580 149.972198 -77.570412 -2.888695 0.959446 1.449557 -19.560297 1.742158 -4.207785 35.521412 -0.546048 1.938304 -16.251556 1.113245 -7.243435 -19.760260 -2.086698 3.428623 36.006817 0.230637 2.277319 -16.855341 -1.044177 
1.225440 45.817371 -1.129457 -0.000000 -0.000010 -0.000000 6.264277 12.175161 -1.325200 3.057111 1.014181 -0.053641 5.066680 18.827862 -1.638162 5.241091 -31.991650 3.016664 -13.241650 -0.531620 1.967717 -64.838814 6.784477 -52.850590 -84.034279 22.094143 -21.872484 2.249223 -46.972839 -4.948208 8.156154 -0.369241 -2.020370 82.004425 2.450546 72.242973 -24.223919 19.742676 149.976318 -81.871346 -2.933750 0.724127 1.448810 -19.451172 1.625808 -4.332678 35.394215 -0.397589 1.986705 -16.447037 1.109785 -7.240294 -19.700817 -2.058156 3.314365 35.869610 0.248528 2.448942 -16.633345 -0.965211 
1.227912 45.819176 -1.129577 -0.000000 -0.000010 -0.000000 6.285628 12.223238 -1.334878 3.066887 1.014174 -0.053813 4.633485 18.839083 -1.499134 5.355525 -31.977131 3.125342 -13.349010 -0.535305 1.966850 -64.852928 6.757794 -52.975780 -84.037865 22.132015 -21.851017 2.249713 -46.968876 -4.938845 8.253798 -0.371296 -2.019869 81.905518 2.446664 72.272034 -24.242138 19.751783 149.980438 -77.378258 -2.890758 0.968341 1.438285 -19.431698 1.631415 -4.317629 35.336052 -0.422027 1.912469 -16.300657 1.120792 -7.249873 -19.698317 -2.050089 3.291931 35.899746 0.285565 2.454971 -16.741009 -0.989281 
1.229702 45.820126 -1.130056 -0.000000 -0.000010 -0.000000 6.306537 12.261607 -1.343496 3.076663 1.023919 -0.054508 4.344656 18.846012 -1.405851 5.479673 -31.932861 3.217215 -13.427091 -0.537984 1.966215 -64.886307 6.714458 -53.108311 -84.052315 22.237047 -21.785131 2.237410 -46.973160 -4.945664 8.331874 -0.374048 -2.019465 81.835922 2.442790 72.301102 -24.260349 19.760887 149.984558 -72.907104 -2.814812 1.200006 1.438290 -19.431698 1.631417 -4.313398 35.258827 -0.394265 1.927423 -16.265497 1.071060 -7.250818 -19.717869 -2.062762 3.461478 35.916183 0.208565 2.316469 -16.572752 -1.014588 
1.230869 45.820328 -1.130842 -0.000000 -0.000010 -0.000000 6.316995 12.280791 -1.348864 3.086431 1.023910 -0.054680 4.189918 18.849546 -1.355187 5.602517 -31.869047 3.296860 -13.485658 -0.539995 1.965730 -64.908478 6.682009 -53.232582 -84.073235 22.374779 -21.685059 2.228283 -46.982975 -4.937516 8.380622 -0.377191 -2.019213 81.785439 2.437614 72.339867 -24.287670 19.774540 149.990753 -68.426025 -2.719564 1.434407 1.438290 -19.431698 1.631417 -4.330387 35.354382 -0.417803 1.795439 -16.271128 1.044654 -7.264843 -19.760912 -3.115296 3.153055 36.047661 0.334591 2.158216 -16.704651 -0.235566 
1.231483 45.819878 -1.131885 -0.000000 -0.000010 -0.000000 6.327456 12.299973 -1.353192 3.086431 1.023910 -0.054680 4.149136 18.869949 -1.343354 5.724595 -31.795397 3.356344 -13.514936 -0.541000 1.965493 -64.919350 6.650805 -53.357048 -84.096779 22.530333 -21.569614 2.228283 -46.982975 -4.937516 8.400146 -0.377882 -2.019118 81.773544 2.430916 72.368546 -24.317644 19.783861 149.997879 -72.398079 -2.804601 1.234151 1.450220 -19.570478 1.607218 -4.390153 35.441471 -0.261834 1.993169 -16.403795 1.043123 -7.274357 -19.766996 -3.127749 3.091424 36.023186 0.345490 2.210704 -16.671604 -0.130675 
1.231604 45.818882 -1.133136 -0.000000 -0.000010 -0.000000 6.327456 12.299973 -1.353192 3.086431 1.023910 -0.054680 4.211310 18.888037 -1.364880 5.833797 -31.702766 3.405453 -13.514936 -0.541000 1.965493 -64.957634 6.613686 -53.450741 -84.117615 22.685499 -21.452705 2.228283 -46.982975 -4.937516 8.409955 -0.376806 -2.019066 81.762123 2.425753 72.407295 -24.344992 19.797512 150.004089 -76.371330 -2.873613 1.019163 1.449982 -19.503115 1.717995 -4.222069 35.431084 -0.550948 1.929699 -16.366796 1.035159 -7.262267 -19.720179 -3.108879 3.210289 35.985226 0.295062 2.125873 -16.612736 -0.123154 
1.231298 45.817436 -1.134544 -0.000000 -0.000010 -0.000000 6.327221 12.290271 -1.351039 3.086431 1.023910 -0.054680 4.367067 18.913700 -1.418015 5.930727 -31.600876 3.428267 -13.505175 -0.540667 1.965568 -64.978851 6.596206 -53.517647 -84.135918 22.776356 -21.371134 2.228283 -46.982975 -4.937516 8.390381 -0.377537 -2.019166 81.770676 2.421875 72.436363 -24.381430 19.815704 150.012390 -80.354286 -2.925045 0.808611 1.449982 -19.503115 1.717995 -4.222062 35.431087 -0.550952 1.910511 -16.420792 1.095970 -7.262267 -19.720179 -3.108879 3.090695 36.004356 0.326067 2.275383 -16.647333 -0.021021 
1.230631 45.815662 -1.136061 -0.000000 -0.000010 -0.000000 6.316995 12.280791 -1.348864 3.086431 1.023910 -0.054680 4.584580 18.937695 -1.489988 6.015398 -31.489780 3.443507 -13.475898 -0.539658 1.965813 -65.023956 6.568166 -53.553062 -84.137146 22.788937 -21.363924 2.228283 -46.982975 -4.937516 8.370866 -0.376848 -2.019268 81.798737 2.418001 72.465424 -24.408764 19.829338 150.018631 -76.131218 -2.863957 1.034359 1.460310 -19.520426 1.741251 -4.214283 35.511616 -0.524433 2.003900 -16.368458 1.104963 -7.262267 -19.720179 -3.108879 3.102928 36.002392 0.351064 2.259556 -16.572313 -0.093722 
1.229666 45.813633 -1.137632 -0.000000 -0.000010 -0.000000 6.306537 12.261607 -1.343496 3.076663 1.023919 -0.054508 4.864085 18.959822 -1.582987 6.099893 -31.378626 3.449489 -13.427091 -0.537984 1.966215 -65.060890 6.555401 -53.551075 -84.116386 22.672915 -21.459909 2.237410 -46.973160 -4.945664 8.331874 -0.374048 -2.019465 81.827698 2.416920 72.494865 -24.445229 19.847527 150.026947 -71.895508 -2.800859 1.256404 1.460310 -19.520426 1.741251 -4.213253 35.492378 -0.515036 1.918567 -16.377096 1.032640 -7.265823 -19.771872 -3.107441 3.273486 36.038452 0.293205 2.106310 -16.584167 -0.143051 
1.228468 45.811470 -1.139211 -0.000000 -0.000010 -0.000000 6.295849 12.232715 -1.339134 3.076663 1.023919 -0.054508 5.174939 18.990370 -1.688079 6.149988 -31.269100 3.436452 -13.378297 -0.536305 1.966607 -65.108086 6.546599 -53.499969 -84.073235 22.374779 -21.685059 2.237410 -46.973160 -4.945664 8.283025 -0.373729 -2.019721 81.884178 2.410241 72.523560 -24.481682 19.865719 150.035263 -67.676338 -2.705402 1.471473 1.471370 -19.539104 1.745407 -4.218713 35.472500 -0.503453 2.020638 -16.398960 0.978844 -7.263555 -19.740549 -3.112089 3.079590 36.024063 0.349514 2.287721 -16.734087 0.005068 
1.227102 45.809273 -1.140747 -0.000000 -0.000010 -0.000000 6.275176 12.204054 -1.330581 3.066887 1.014174 -0.053813 5.526878 19.009418 -1.804354 6.199353 -31.149866 3.421060 -13.309972 -0.533962 1.967169 -65.157181 6.550126 -53.391121 -84.065468 21.741543 -22.050962 2.249713 -46.968876 -4.938845 8.224516 -0.370266 -2.020023 81.931786 2.406365 72.552620 -24.509033 19.879356 150.041519 -71.827309 -2.791125 1.263358 1.470066 -19.519684 1.743447 -4.205459 35.484383 -0.489005 1.946418 -16.476667 1.008480 -7.252080 -19.738209 -2.065968 3.462823 35.945496 0.208355 2.224781 -16.610256 -1.018658 
1.225632 45.807137 -1.142191 -0.000000 -0.000010 -0.000000 6.264277 12.175161 -1.325200 3.057111 1.014181 -0.053641 5.889571 19.037157 -1.926189 6.215121 -31.041973 3.381101 -13.241650 -0.531620 1.967717 -65.211349 6.563600 -53.224140 -84.054314 20.999147 -22.426563 2.249223 -46.972839 -4.948208 8.165960 -0.368204 -2.020320 81.980270 2.405272 72.582062 -24.545515 19.897524 150.049896 -75.968628 -2.863286 1.037341 1.461012 -19.539894 1.743074 -4.184455 35.503410 -0.573209 1.932515 -16.418020 1.120290 -7.255553 -19.807035 -2.105593 3.480941 36.081329 0.203343 2.250376 -16.903709 -1.017477 
1.224122 45.805168 -1.143489 -0.000000 -0.000010 -0.000000 6.243835 12.146487 -1.317731 3.047352 1.014187 -0.053470 6.241688 19.054789 -2.043964 6.219506 -30.934637 3.334325 -13.173326 -0.529269 1.968276 -65.288498 6.578146 -52.977772 -84.075539 20.180677 -22.693125 2.249223 -46.972839 -4.948208 8.107354 -0.367508 -2.020615 82.038055 2.402682 72.601440 -24.575535 19.906799 150.057083 -80.121002 -2.916030 0.816665 1.481370 -19.559340 1.730065 -4.224898 35.488770 -0.579221 1.870133 -16.374620 1.074753 -7.255553 -19.807035 -2.105593 3.359576 36.081760 0.235264 2.504974 -16.604103 -0.873411 
1.222639 45.803463 -1.144596 -0.000000 -0.000010 -0.000000 6.233163 12.117582 -1.313414 3.047352 1.014187 -0.053470 6.583166 19.062380 -2.157477 6.190468 -30.838642 3.281059 -13.114766 -0.527257 1.968742 -65.362160 6.613371 -52.655029 -84.143227 19.371992 -22.718203 2.258846 -46.959053 -4.947002 8.048840 -0.364062 -2.020913 82.104729 2.397308 72.620438 -24.602896 19.920435 150.063354 -75.629143 -2.859302 1.064177 1.481370 -19.559340 1.730065 -4.240562 35.557396 -0.535164 1.885510 -16.291039 1.126404 -7.255553 -19.807035 -2.105593 3.275613 36.087311 0.292982 2.451185 -16.760174 -0.936718 
